<?xml version="1.0" encoding="UTF-8"?>
<!DOCTYPE svg PUBLIC "-//W3C//DTD SVG 1.1//EN" "http://www.w3.org/Graphics/SVG/1.1/DTD/svg11.dtd">
<!-- Creator: CorelDRAW X7 -->
<svg xmlns="http://www.w3.org/2000/svg" xml:space="preserve" width="33.3145mm" height="33.3145mm" version="1.1" style="shape-rendering:geometricPrecision; text-rendering:geometricPrecision; image-rendering:optimizeQuality; fill-rule:evenodd; clip-rule:evenodd"
viewBox="0 0 811 811"
 xmlns:xlink="http://www.w3.org/1999/xlink">
 <defs>
  <style type="text/css">
   <![CDATA[
    .fil0 {fill:#B3B3B3}
    .fil1 {fill:#B3B3B3;fill-rule:nonzero}
   ]]>
  </style>
 </defs>
 <g id="Слой_x0020_1">
  <metadata id="CorelCorpID_0Corel-Layer"/>
  <path class="fil0" d="M546 176l-73 0c-82,0 -135,54 -135,138l0 63 -73 0c-6,0 -11,5 -11,12l0 92c0,6 5,11 11,11l73 0 0 178c0,7 6,12 12,12l95 0c7,0 12,-5 12,-12l0 -178 85 0c6,0 12,-5 12,-11l0 -92c0,-3 -2,-6 -4,-8 -2,-2 -5,-4 -8,-4l-85 0 0 -54c0,-25 6,-39 40,-39l48 0c7,0 12,-5 12,-11l0 -86c0,-6 -5,-11 -11,-11z"/>
  <path class="fil1" d="M405 0c112,0 214,45 287,119 73,73 119,174 119,286 0,112 -46,214 -119,287 -73,73 -175,119 -287,119 -112,0 -213,-46 -286,-119 -74,-73 -119,-175 -119,-287 0,-112 45,-213 119,-286 73,-74 174,-119 286,-119zm280 126c-72,-71 -170,-116 -280,-116 -109,0 -207,45 -279,116 -71,72 -116,170 -116,279 0,110 45,208 116,280 72,71 170,116 279,116 110,0 208,-45 280,-116 71,-72 116,-170 116,-280 0,-109 -45,-207 -116,-279z"/>
 </g>
</svg>
