<?xml version="1.0" encoding="UTF-8"?>
<!DOCTYPE svg PUBLIC "-//W3C//DTD SVG 1.1//EN" "http://www.w3.org/Graphics/SVG/1.1/DTD/svg11.dtd">
<!-- Creator: CorelDRAW X7 -->
<svg xmlns="http://www.w3.org/2000/svg" xml:space="preserve" width="20.8422mm" height="20.8428mm" version="1.1" style="shape-rendering:geometricPrecision; text-rendering:geometricPrecision; image-rendering:optimizeQuality; fill-rule:evenodd; clip-rule:evenodd"
viewBox="0 0 496 496"
 xmlns:xlink="http://www.w3.org/1999/xlink">
 <defs>
  <style type="text/css">
   <![CDATA[
    .fil0 {fill:#1A1A1A;fill-rule:nonzero}
   ]]>
  </style>
 </defs>
 <g id="Слой_x0020_1">
  <metadata id="CorelCorpID_0Corel-Layer"/>
  <path class="fil0" d="M402 0l-309 0c-51,0 -93,42 -93,93l0 309c0,52 42,94 93,94l309 0c52,0 94,-42 94,-94l0 -309c0,-51 -42,-93 -94,-93zm-90 248l-41 0 0 148 -56 0 0 -148 -37 0 0 -51 37 -1 0 -30c0,-41 12,-67 61,-67l41 0 0 51 -26 0c-19,0 -20,8 -20,21l0 25 46 0 -5 52z"/>
 </g>
</svg>
