<?xml version="1.0" encoding="UTF-8"?>
<!DOCTYPE svg PUBLIC "-//W3C//DTD SVG 1.1//EN" "http://www.w3.org/Graphics/SVG/1.1/DTD/svg11.dtd">
<!-- Creator: CorelDRAW X7 -->
<svg xmlns="http://www.w3.org/2000/svg" xml:space="preserve" width="297mm" height="15.974mm" version="1.1" style="shape-rendering:geometricPrecision; text-rendering:geometricPrecision; image-rendering:optimizeQuality; fill-rule:evenodd; clip-rule:evenodd"
viewBox="0 0 29700 1597"
 xmlns:xlink="http://www.w3.org/1999/xlink">
 <defs>
  <style type="text/css">
   <![CDATA[
    .fil1 {fill:#663333;fill-opacity:0.078431}
    .fil0 {fill:url(#id0)}
   ]]>
  </style>
  <linearGradient id="id0" gradientUnits="userSpaceOnUse" x1="6227.95" y1="1340.68" x2="31524.1" y2="217.55">
   <stop offset="0" style="stop-opacity:1; stop-color:#C0934D"/>
   <stop offset="0.0117647" style="stop-opacity:1; stop-color:#C0934D"/>
   <stop offset="0.270588" style="stop-opacity:1; stop-color:#FFEAAD"/>
   <stop offset="0.811765" style="stop-opacity:1; stop-color:#FFE59C"/>
   <stop offset="1" style="stop-opacity:1; stop-color:#BB9458"/>
  </linearGradient>
 </defs>
 <g id="Слой_x0020_1">
  <metadata id="CorelCorpID_0Corel-Layer"/>
  <g id="_2272905997232">
   <polygon class="fil0" points="0,0 29700,0 29700,1597 0,1597 "/>
   <g>
    <path class="fil1" d="M92 0c113,537 251,1070 414,1597l351 0c-47,-148 -92,-298 -135,-448 -14,-4 -21,-6 -21,-6l0 0c0,0 6,-4 16,-12 -107,-375 -201,-752 -282,-1131l-343 0zm585 0l43 0c89,431 173,765 227,970l-9 5c-61,-204 -159,-540 -261,-975zm342 0l40 0c70,338 135,611 182,799l-11 6c-55,-188 -131,-463 -211,-805zm265 0l85 0c-11,40 -15,65 -15,65l0 0c64,-28 124,-49 181,-65l94 0c45,196 93,390 145,585 -110,31 -217,70 -317,113 -63,-232 -120,-465 -173,-698zm-122 1597l-68 0c-33,-125 -57,-229 -73,-300 10,7 20,14 31,21 28,69 67,165 110,279z"/>
    <path class="fil1" d="M1369 0c-11,40 -15,65 -15,65l0 0c64,-28 124,-49 181,-65l-166 0zm28331 646l0 -646c-233,523 -460,1049 -639,1597l272 0c109,-321 234,-637 367,-951zm-27686 -646c127,36 259,98 413,180l0 0c101,56 194,116 280,180l0 0c182,134 334,287 467,453l0 0c-62,-40 -128,-72 -191,-112l0 0c-985,-616 -2282,442 -2282,442l0 0c-3,3 300,58 665,454l363 0c-146,-182 -319,-352 -531,-510l0 0c569,-280 1092,-456 1664,-161l0 0c97,51 188,108 274,171l0 0c187,139 346,310 483,500l313 0 -2 -1 0 0c-242,-541 -546,-1049 -1067,-1439l0 0c-74,-56 -152,-108 -235,-157l-614 0zm25452 1597c217,-221 403,-442 580,-673l0 0c2,-2 4,-5 6,-8l0 0c-91,223 -176,450 -252,681l272 0c185,-549 423,-1077 684,-1597l-371 0c-41,66 -83,132 -128,195l0 0c-41,58 -81,113 -120,169l0 0c-426,322 -714,591 -724,597l0 0c9,-3 245,-169 590,-410l0 0c-55,75 -109,149 -164,220l0 0c-186,243 -380,471 -610,701l0 0c-42,43 -85,84 -130,125l367 0zm-254 -1597c-249,222 -485,457 -686,717l0 0c-133,174 -250,359 -344,560l0 0c-48,102 -91,210 -128,320l276 0c17,-46 35,-92 55,-137l0 0c455,-325 717,-676 707,-680l0 0c5,9 -247,254 -641,536l0 0c79,-156 173,-304 282,-445 241,-316 547,-597 871,-871l-392 0zm-2396 1597c157,-229 294,-491 235,-745l0 0c0,0 -75,327 -263,539l0 0c-72,81 -133,148 -191,206l219 0zm-3968 0c201,-432 175,-1002 343,-1319l0 0c42,-84 99,-180 169,-278l-309 0c-35,57 -66,113 -93,166l0 0c-215,456 -179,1113 -401,1431l291 0zm-1115 0c-510,-114 -1022,-367 -1482,-709l0 0c-345,-255 -658,-560 -920,-888l-361 0c297,422 679,804 1126,1092l0 0c334,215 628,379 893,505l744 0zm-2295 0c-290,-170 -547,-362 -762,-571l0 0c-404,-345 -650,-703 -802,-1026l-24 0c147,330 390,698 797,1057l0 0c196,195 427,377 688,540l103 0zm-496 0c-150,-100 -294,-206 -432,-320l0 0c-467,-365 -777,-806 -962,-1277l-67 0c184,489 500,949 982,1329l0 0c113,94 231,184 352,268l127 0zm-422 0c-251,-194 -481,-410 -686,-647l0 0c-235,-301 -411,-621 -533,-950l-70 0c124,343 304,678 547,994l0 0c189,219 398,420 624,603l118 0zm-334 0c-485,-452 -875,-990 -1112,-1597l-290 0c68,163 144,327 228,492l0 0 2 -1c210,406 484,776 805,1106l367 0zm-634 0c-183,-278 -351,-516 -470,-623l0 0c-450,-408 -1176,-315 -1176,-315l0 0c0,0 462,358 521,938l259 0c-18,-202 -78,-445 -201,-645l0 0c155,47 304,123 440,225l0 0c86,63 205,220 340,420l287 0zm-9000 0l-2 -1 0 0c-163,-121 -308,-264 -383,-401l0 0c-75,-140 -132,-351 -60,-480l0 0c0,0 -230,97 -567,585l0 0c79,-433 176,-865 269,-1300l-266 0c-113,529 -231,1059 -316,1597l457 0c59,-132 127,-263 204,-391l0 0c15,38 31,76 51,111l0 0c57,101 133,195 219,280l394 0zm-1382 0c79,-545 180,-1077 278,-1597l-82 0c-99,518 -201,1050 -280,1597l84 0zm-219 0c54,-550 128,-1084 205,-1597l-80 0c-79,510 -154,1042 -208,1592l0 0c-9,-57 -19,-115 -26,-173l0 0c-19,-253 -22,-513 -21,-773l0 0c38,-218 76,-434 111,-646l-83 0 -26 147 0 0 2 -147 -381 0c7,110 15,219 23,327l0 0c-67,-124 -136,-233 -202,-327l-63 0c90,150 191,336 283,547l0 0c15,175 33,350 53,524l0 0c-194,-466 -430,-832 -612,-1071l-33 0c201,296 484,787 688,1421l0 0c1,10 2,20 4,30l0 0c3,49 6,98 11,146l355 0zm-501 0c-124,-341 -251,-649 -400,-900l0 0c-198,-338 -416,-559 -579,-697l-19 0c158,142 371,371 561,716l0 0c138,250 254,549 369,881l68 0zm-290 0c-90,-224 -185,-433 -291,-621l0 0c-278,-493 -611,-793 -899,-976l-30 0c286,186 620,492 893,996l0 0c98,182 187,384 271,601l56 0zm6394 -1597l272 0c17,47 31,94 43,143l0 0c80,335 8,640 -159,857l-1 1 0 0c-138,181 -340,301 -565,333 -39,6 -79,8 -120,8l0 0c-177,0 -362,-55 -531,-171l0 0c3,155 32,298 82,426l-306 0c-86,-462 132,-856 132,-856l0 0c33,32 191,237 224,262l0 0c334,244 677,99 878,-156l0 0c118,-155 177,-376 114,-647l0 0c-15,-68 -36,-135 -63,-200zm469 0l31 0c31,103 49,207 51,311l0 0c17,448 -184,814 -436,1006l0 0c-485,340 -855,162 -916,148l0 0c61,13 433,185 908,-158l0 0c246,-193 439,-555 418,-995l0 0c-3,-104 -23,-208 -56,-312zm249 0l36 0c146,666 -156,1282 -513,1505l0 0c-47,36 -93,67 -138,92l-22 0c50,-27 100,-61 152,-103l0 0c351,-228 641,-839 485,-1494zm274 0l39 0c86,729 -251,1322 -581,1597l-21 0c327,-271 660,-874 563,-1597zm882 0l104 0c78,48 156,88 233,118l0 0c406,164 693,145 689,156l0 0c1,-3 -12,-3 -38,-3l0 0c-89,0 -336,1 -667,-115l0 0c-105,-35 -213,-88 -321,-156zm914 0l370 0c236,233 493,439 493,439l0 0c-350,179 -874,333 -1194,406l0 0c-132,32 -416,42 -419,48l0 0c0,0 -24,332 -200,704l-318 0c130,-286 196,-637 135,-829l0 0c-79,-250 -189,-445 -189,-445l0 0c39,34 310,363 933,274l0 0c219,-32 456,-153 742,-241l0 0c-108,-117 -235,-223 -353,-356zm13512 0l73 0c-294,332 -617,776 -869,1326l0 0c-50,91 -93,182 -130,271l-77 0c37,-102 81,-204 130,-306 250,-541 574,-970 873,-1291zm928 0l59 0c-293,230 -467,376 -452,398l0 0c-19,-17 131,-168 393,-398zm385 0l115 0c-511,393 -866,696 -870,690l0 0c5,6 294,-304 755,-690zm797 0l87 0c-250,540 -480,1072 -675,1597l-76 0c191,-527 417,-1058 664,-1597zm254 0l88 0c-251,542 -483,1074 -681,1597l-78 0c195,-525 423,-1056 671,-1597zm206 0l89 0c-257,541 -491,1071 -668,1597l-77 0c173,-528 403,-1058 656,-1597zm-2514 1597l-75 0c275,-213 443,-360 440,-366l0 0c5,3 -130,154 -365,366zm-344 0l-111 0c378,-302 649,-519 659,-524l0 0c-8,6 -221,233 -548,524zm-955 0l-89 0c311,-922 919,-1460 929,-1491l0 0c-6,32 -541,608 -840,1491zm-343 0l-65 0c116,-279 238,-451 240,-456l0 0c-1,5 -85,183 -175,456zm-846 0l-115 0c295,-238 491,-553 615,-792 206,-399 262,-678 269,-678l0 0c0,0 0,0 0,0l0 0c-7,0 -42,282 -231,697l0 0c-105,227 -274,528 -538,773zm-898 0l-239 0c-548,-42 -1009,-208 -1358,-286l0 0c-378,-78 -622,-96 -629,-102l0 0c7,6 251,3 637,61l0 0c390,67 918,236 1508,253 1103,-161 1310,-1164 1349,-1381l0 0c-8,82 -20,295 -145,574l0 0c-140,336 -525,798 -1123,881zm-1627 0l-136 0c-340,-96 -562,-92 -577,-95l0 0c3,0 13,0 29,0l0 0c82,-2 334,-3 684,95zm-6794 0l-5 0c-50,-105 -75,-161 -83,-156l0 0c8,-6 34,51 88,156zm-11877 0l-13 0c-273,-368 -521,-487 -519,-500l0 0c-2,13 251,129 532,500zm-1162 0l-10 0c-263,-351 -496,-493 -519,-525l0 0c23,32 260,172 529,525zm22734 -1487c1,-2 2,-6 4,-5l0 0c0,-3 -1,-5 -1,-5l0 0c0,0 -2,4 -3,10zm1653 -4c0,-1 0,-1 -1,-1l0 0c1,0 1,0 1,1zm-1659 36c3,-14 5,-25 6,-32l0 0c-2,6 -4,15 -6,32zm399 -15c0,0 0,0 0,0l0 0c0,0 0,0 0,0l0 0c0,0 0,0 0,0zm-3298 45c2,-1 221,128 528,222l0 0c192,51 359,22 462,-7l0 0c61,-18 100,-35 107,-35l0 0c-6,-2 -32,0 -74,3l0 0c-97,7 -276,13 -474,-41l0 0c-289,-89 -542,-142 -549,-142l0 0c0,0 0,0 0,0zm1097 180c2,0 2,0 2,0l0 0c0,0 0,0 -1,0l0 0c0,0 0,0 -1,0zm1286 89c5,-5 -58,166 -217,336l0 0c-186,201 -504,401 -994,317l0 0c-827,-126 -1514,-258 -1515,-224l0 0c9,-32 658,177 1507,306l0 0c518,80 838,-140 1019,-360l0 0c156,-188 210,-377 202,-377l0 0c-1,0 -1,1 -2,2zm-1 2c0,-1 0,-1 1,-2l0 0c0,0 -1,1 -1,2zm-2542 67c15,1 304,182 715,233l0 0c237,22 447,0 583,-22l0 0c102,-16 163,-32 167,-31l0 0c-9,-6 -341,7 -741,-29l0 0c-391,-48 -700,-151 -723,-151l0 0c0,0 -1,0 -1,0zm0 0c0,0 0,0 0,0l0 0c0,0 0,0 0,0l0 0c0,0 0,0 0,0zm1465 180c0,0 0,0 0,0l0 0c0,0 0,0 0,0zm4214 271c0,0 0,0 1,0l0 0c-1,0 -1,0 -1,0zm-25879 107c0,-1 0,-1 1,-2l0 0c-1,1 -1,1 -1,2zm0 0c0,0 0,0 0,0l0 0c0,0 0,0 0,0zm0 1c0,0 0,-1 0,-1l0 0c0,0 0,1 0,1zm2 3c-1,-2 -1,-2 -2,-3l0 0c1,1 1,1 2,3zm0 0c0,0 0,0 0,0l0 0c0,0 0,0 0,0zm0 0c0,0 0,0 0,0l0 0c0,0 0,0 0,0zm25579 1c0,0 0,0 0,0l0 0c0,0 0,0 0,0l0 0c0,0 0,0 0,0zm-24420 23c0,0 0,0 1,0l0 0c-1,0 -1,0 -1,0zm0 1c0,0 0,0 0,-1l0 0c0,1 0,1 0,1zm22749 44c0,0 0,0 0,0l0 0c0,0 0,0 0,0l0 0c0,0 0,0 0,0zm-4145 68c0,0 0,0 0,0l0 0c0,0 0,0 0,0zm-11551 255c1,0 3,0 6,1l0 0c-3,-1 -5,-1 -6,-1l0 0c0,0 0,0 0,0zm-3 2c0,-1 1,-2 3,-2l0 0c0,0 0,0 0,0l0 0c-2,0 -3,1 -3,2zm0 2c0,-1 0,-1 0,-2l0 0c0,1 0,1 0,2zm11440 34c0,0 -1,-1 -1,-1l0 0c0,1 0,1 1,1z"/>
   </g>
  </g>
 </g>
</svg>
