<?xml version="1.0" encoding="UTF-8"?>
<!DOCTYPE svg PUBLIC "-//W3C//DTD SVG 1.1//EN" "http://www.w3.org/Graphics/SVG/1.1/DTD/svg11.dtd">
<!-- Creator: CorelDRAW X7 -->
<svg xmlns="http://www.w3.org/2000/svg" xml:space="preserve" width="20.8428mm" height="20.8428mm" version="1.1" style="shape-rendering:geometricPrecision; text-rendering:geometricPrecision; image-rendering:optimizeQuality; fill-rule:evenodd; clip-rule:evenodd"
viewBox="0 0 277 277"
 xmlns:xlink="http://www.w3.org/1999/xlink">
 <defs>
  <style type="text/css">
   <![CDATA[
    .fil0 {fill:#1A1A1A}
   ]]>
  </style>
 </defs>
 <g id="Слой_x0020_1">
  <metadata id="CorelCorpID_0Corel-Layer"/>
  <path class="fil0" d="M36 0l205 0c20,0 36,14 36,36l0 205c0,21 -16,36 -36,36l-205 0c-20,0 -36,-15 -36,-36l0 -205c0,-22 16,-36 36,-36zm166 31c-7,0 -13,5 -13,12l0 30c0,7 6,12 13,12l31 0c7,0 12,-5 12,-12l0 -30c0,-7 -5,-12 -12,-12l-31 0zm43 86l-24 0c2,8 4,15 4,24 0,46 -39,83 -86,83 -48,0 -86,-37 -86,-83 0,-9 1,-16 3,-24l-25 0 0 117c0,6 5,11 11,11l192 0c6,0 11,-5 11,-11l0 -117zm-106 -33c-31,0 -56,24 -56,54 0,29 25,54 56,54 30,0 55,-25 55,-54 0,-30 -25,-54 -55,-54z"/>
 </g>
</svg>
