<?xml version="1.0" encoding="UTF-8"?>
<!DOCTYPE svg PUBLIC "-//W3C//DTD SVG 1.1//EN" "http://www.w3.org/Graphics/SVG/1.1/DTD/svg11.dtd">
<!-- Creator: CorelDRAW X7 -->
<svg xmlns="http://www.w3.org/2000/svg" xml:space="preserve" width="20.8431mm" height="20.8431mm" version="1.1" style="shape-rendering:geometricPrecision; text-rendering:geometricPrecision; image-rendering:optimizeQuality; fill-rule:evenodd; clip-rule:evenodd"
viewBox="0 0 771 771"
 xmlns:xlink="http://www.w3.org/1999/xlink">
 <defs>
  <style type="text/css">
   <![CDATA[
    .fil0 {fill:#1A1A1A}
   ]]>
  </style>
 </defs>
 <g id="Слой_x0020_1">
  <metadata id="CorelCorpID_0Corel-Layer"/>
  <path class="fil0" d="M626 0c80,0 145,65 145,144l0 482c0,80 -65,145 -145,145l-482 0c-79,0 -144,-65 -144,-145l0 -482c0,-79 65,-144 144,-144l482 0zm-13 511l-67 -68c-14,-13 -36,-13 -50,1l-34 34c-2,-1 -4,-2 -6,-3 -22,-12 -51,-29 -82,-59 -31,-31 -47,-61 -59,-82 -1,-2 -3,-5 -4,-7l23 -22 11 -12c14,-14 15,-36 1,-49l-67 -67c-13,-14 -36,-13 -50,0l-19 20 1 0c-6,8 -12,18 -16,28 -3,9 -6,18 -7,28 -9,73 25,141 116,232 127,126 229,117 233,116 10,-1 19,-3 28,-7 10,-4 19,-9 28,-15l0 0 19 -19c14,-14 14,-36 1,-49z"/>
 </g>
</svg>
