<?xml version="1.0" encoding="UTF-8"?>
<!DOCTYPE svg PUBLIC "-//W3C//DTD SVG 1.1//EN" "http://www.w3.org/Graphics/SVG/1.1/DTD/svg11.dtd">
<!-- Creator: CorelDRAW X7 -->
<svg xmlns="http://www.w3.org/2000/svg" xml:space="preserve" width="20.8422mm" height="20.8428mm" version="1.1" style="shape-rendering:geometricPrecision; text-rendering:geometricPrecision; image-rendering:optimizeQuality; fill-rule:evenodd; clip-rule:evenodd"
viewBox="0 0 2775 2775"
 xmlns:xlink="http://www.w3.org/1999/xlink">
 <defs>
  <style type="text/css">
   <![CDATA[
    .fil0 {fill:#1A1A1A;fill-rule:nonzero}
   ]]>
  </style>
 </defs>
 <g id="Слой_x0020_1">
  <metadata id="CorelCorpID_0Corel-Layer"/>
  <path class="fil0" d="M2254 0l-1734 0c-287,0 -520,233 -520,520l0 1734c0,288 233,521 520,521l1734 0c288,0 521,-233 521,-521l0 -1734c0,-287 -233,-520 -521,-520zm-15 1698c-9,116 -97,263 -219,284 -393,30 -859,26 -1266,0 -126,-16 -209,-169 -219,-284 -19,-243 -19,-381 0,-623 10,-116 95,-267 219,-282 403,-33 871,-26 1266,0 141,6 210,151 219,267 20,242 20,395 0,638z"/>
  <polygon class="fil0" points="1214,1734 1734,1387 1214,1041 "/>
 </g>
</svg>
